<?xml version="1.0" encoding="UTF-8"?>
<svg xmlns="http://www.w3.org/2000/svg" xmlns:xlink="http://www.w3.org/1999/xlink" width="497px" height="350px" viewBox="0 0 496 350" version="1.1">
<g id="surface1">
<path style=" stroke:none;fill-rule:nonzero;fill:rgb(94.901961%,94.901961%,94.901961%);fill-opacity:1;" d="M 109.867188 35.058594 L 78.246094 35.058594 C 71.917969 35.066406 66.789062 40.203125 66.78125 46.546875 L 66.78125 80.886719 C 66.378906 80.863281 65.972656 80.828125 65.574219 80.777344 C 44.769531 78.585938 29.070312 60.851562 29.382812 39.894531 C 29.695312 18.941406 45.914062 1.683594 66.777344 0.113281 C 87.640625 -1.457031 106.25 13.175781 109.683594 33.851562 C 109.75 34.25 109.8125 34.65625 109.867188 35.058594 Z M 109.867188 35.058594 "/>
<path style=" stroke:none;fill-rule:nonzero;fill:rgb(24.705882%,23.921569%,33.72549%);fill-opacity:1;" d="M 483.132812 33.851562 L 78.246094 33.851562 C 71.253906 33.859375 65.582031 39.539062 65.574219 46.546875 L 65.574219 260.535156 C 65.582031 267.542969 71.253906 273.222656 78.246094 273.230469 L 483.132812 273.230469 C 490.128906 273.222656 495.796875 267.542969 495.804688 260.535156 L 495.804688 46.546875 C 495.796875 39.539062 490.128906 33.859375 483.132812 33.851562 Z M 494.597656 260.535156 C 494.59375 266.875 489.460938 272.015625 483.132812 272.019531 L 78.246094 272.019531 C 71.917969 272.015625 66.789062 266.875 66.78125 260.535156 L 66.78125 46.546875 C 66.789062 40.203125 71.917969 35.066406 78.246094 35.058594 L 483.132812 35.058594 C 489.460938 35.066406 494.59375 40.203125 494.597656 46.546875 Z M 494.597656 260.535156 "/>
<path style=" stroke:none;fill-rule:nonzero;fill:rgb(24.705882%,23.921569%,33.72549%);fill-opacity:1;" d="M 463.222656 68.53125 L 98.160156 68.53125 C 97.828125 68.53125 97.554688 68.261719 97.554688 67.925781 C 97.554688 67.59375 97.828125 67.320312 98.160156 67.320312 L 463.222656 67.320312 C 463.554688 67.320312 463.824219 67.59375 463.824219 67.925781 C 463.824219 68.261719 463.554688 68.53125 463.222656 68.53125 Z M 463.222656 68.53125 "/>
<path style=" stroke:none;fill-rule:nonzero;fill:rgb(24.705882%,23.921569%,33.72549%);fill-opacity:1;" d="M 201.34375 247.238281 C 201.007812 247.238281 200.738281 246.964844 200.738281 246.632812 L 200.738281 47.753906 C 200.738281 47.421875 201.007812 47.148438 201.34375 47.148438 C 201.675781 47.148438 201.945312 47.421875 201.945312 47.753906 L 201.945312 246.632812 C 201.945312 246.964844 201.675781 247.238281 201.34375 247.238281 Z M 201.34375 247.238281 "/>
<path style=" stroke:none;fill-rule:nonzero;fill:rgb(24.705882%,23.921569%,33.72549%);fill-opacity:1;" d="M 292.457031 247.238281 C 292.125 247.238281 291.851562 246.964844 291.851562 246.632812 L 291.851562 47.753906 C 291.851562 47.421875 292.125 47.148438 292.457031 47.148438 C 292.789062 47.148438 293.058594 47.421875 293.058594 47.753906 L 293.058594 246.632812 C 293.058594 246.964844 292.789062 247.238281 292.457031 247.238281 Z M 292.457031 247.238281 "/>
<path style=" stroke:none;fill-rule:nonzero;fill:rgb(24.705882%,23.921569%,33.72549%);fill-opacity:1;" d="M 383.570312 247.238281 C 383.238281 247.238281 382.96875 246.964844 382.96875 246.632812 L 382.96875 47.753906 C 382.96875 47.421875 383.238281 47.148438 383.570312 47.148438 C 383.90625 47.148438 384.175781 47.421875 384.175781 47.753906 L 384.175781 246.632812 C 384.175781 246.964844 383.90625 247.238281 383.570312 247.238281 Z M 383.570312 247.238281 "/>
<path style=" stroke:none;fill-rule:nonzero;fill:rgb(3.921569%,15.686275%,30.588235%);fill-opacity:1;" d="M 142.761719 130.925781 L 120.710938 130.925781 C 119.214844 130.921875 118 129.707031 117.996094 128.203125 L 117.996094 102.140625 C 118 100.636719 119.214844 99.421875 120.710938 99.417969 L 142.761719 99.417969 C 144.261719 99.421875 145.476562 100.636719 145.476562 102.140625 L 145.476562 128.203125 C 145.476562 129.707031 144.261719 130.921875 142.761719 130.925781 Z M 142.761719 130.925781 "/>
<path style=" stroke:none;fill-rule:nonzero;fill:rgb(3.921569%,15.686275%,30.588235%);fill-opacity:1;" d="M 174.136719 205.277344 L 152.089844 205.277344 C 150.589844 205.277344 149.375 204.058594 149.375 202.558594 L 149.375 176.492188 C 149.375 174.988281 150.589844 173.773438 152.089844 173.773438 L 174.136719 173.773438 C 175.636719 173.773438 176.851562 174.988281 176.855469 176.492188 L 176.855469 202.558594 C 176.851562 204.058594 175.636719 205.277344 174.136719 205.277344 Z M 174.136719 205.277344 "/>
<path style=" stroke:none;fill-rule:nonzero;fill:rgb(3.921569%,15.686275%,30.588235%);fill-opacity:1;" d="M 245.339844 146.640625 L 223.292969 146.640625 C 221.792969 146.640625 220.578125 145.421875 220.578125 143.921875 L 220.578125 117.855469 C 220.578125 116.355469 221.792969 115.136719 223.292969 115.136719 L 245.339844 115.136719 C 246.839844 115.136719 248.054688 116.355469 248.054688 117.855469 L 248.054688 143.921875 C 248.054688 145.421875 246.839844 146.640625 245.339844 146.640625 Z M 245.339844 146.640625 "/>
<path style=" stroke:none;fill-rule:nonzero;fill:rgb(3.921569%,15.686275%,30.588235%);fill-opacity:1;" d="M 337.660156 118.230469 L 315.613281 118.230469 C 314.113281 118.230469 312.898438 117.011719 312.898438 115.511719 L 312.898438 89.445312 C 312.898438 87.945312 314.113281 86.726562 315.613281 86.726562 L 337.660156 86.726562 C 339.160156 86.726562 340.375 87.945312 340.375 89.445312 L 340.375 115.511719 C 340.375 117.011719 339.160156 118.230469 337.660156 118.230469 Z M 337.660156 118.230469 "/>
<path style=" stroke:none;fill-rule:nonzero;fill:rgb(3.921569%,15.686275%,30.588235%);fill-opacity:1;" d="M 422.742188 118.230469 L 400.691406 118.230469 C 399.195312 118.230469 397.980469 117.011719 397.976562 115.511719 L 397.976562 89.445312 C 397.980469 87.945312 399.195312 86.726562 400.691406 86.726562 L 422.742188 86.726562 C 424.242188 86.726562 425.457031 87.945312 425.457031 89.445312 L 425.457031 115.511719 C 425.457031 117.011719 424.242188 118.230469 422.742188 118.230469 Z M 422.742188 118.230469 "/>
<path style=" stroke:none;fill-rule:nonzero;fill:rgb(90.196078%,90.196078%,90.196078%);fill-opacity:1;" d="M 461.964844 125.484375 L 439.914062 125.484375 C 438.414062 125.484375 437.199219 124.265625 437.199219 122.765625 L 437.199219 96.699219 C 437.199219 95.199219 438.414062 93.980469 439.914062 93.980469 L 461.964844 93.980469 C 463.460938 93.980469 464.675781 95.199219 464.679688 96.699219 L 464.679688 122.765625 C 464.675781 124.265625 463.460938 125.484375 461.964844 125.484375 Z M 461.964844 125.484375 "/>
<path style=" stroke:none;fill-rule:nonzero;fill:rgb(90.196078%,90.196078%,90.196078%);fill-opacity:1;" d="M 444.464844 172.03125 L 422.414062 172.03125 C 420.917969 172.027344 419.703125 170.8125 419.699219 169.308594 L 419.699219 143.246094 C 419.703125 141.742188 420.917969 140.527344 422.414062 140.523438 L 444.464844 140.523438 C 445.964844 140.527344 447.179688 141.742188 447.179688 143.246094 L 447.179688 169.308594 C 447.179688 170.8125 445.964844 172.027344 444.464844 172.03125 Z M 444.464844 172.03125 "/>
<path style=" stroke:none;fill-rule:nonzero;fill:rgb(100%,39.607843%,51.764706%);fill-opacity:1;" d="M 369.640625 162.359375 L 347.59375 162.359375 C 346.09375 162.355469 344.878906 161.140625 344.878906 159.636719 L 344.878906 133.574219 C 344.878906 132.070312 346.09375 130.855469 347.59375 130.851562 L 369.640625 130.851562 C 371.140625 130.855469 372.355469 132.070312 372.355469 133.574219 L 372.355469 159.636719 C 372.355469 161.140625 371.140625 162.355469 369.640625 162.359375 Z M 369.640625 162.359375 "/>
<path style=" stroke:none;fill-rule:nonzero;fill:rgb(90.196078%,90.196078%,90.196078%);fill-opacity:1;" d="M 326.800781 172.03125 L 304.75 172.03125 C 303.253906 172.027344 302.039062 170.8125 302.035156 169.308594 L 302.035156 143.246094 C 302.039062 141.742188 303.253906 140.527344 304.75 140.523438 L 326.800781 140.523438 C 328.300781 140.527344 329.515625 141.742188 329.515625 143.246094 L 329.515625 169.308594 C 329.515625 170.8125 328.300781 172.027344 326.800781 172.03125 Z M 326.800781 172.03125 "/>
<path style=" stroke:none;fill-rule:nonzero;fill:rgb(90.196078%,90.196078%,90.196078%);fill-opacity:1;" d="M 234.480469 213.136719 L 212.429688 213.136719 C 210.929688 213.132812 209.714844 211.917969 209.714844 210.414062 L 209.714844 184.351562 C 209.714844 182.847656 210.929688 181.632812 212.429688 181.628906 L 234.480469 181.628906 C 235.976562 181.632812 237.191406 182.847656 237.195312 184.351562 L 237.195312 210.414062 C 237.191406 211.917969 235.976562 213.132812 234.480469 213.136719 Z M 234.480469 213.136719 "/>
<path style=" stroke:none;fill-rule:nonzero;fill:rgb(100%,39.607843%,51.764706%);fill-opacity:1;" d="M 122.847656 178.679688 L 100.800781 178.679688 C 99.300781 178.679688 98.085938 177.460938 98.085938 175.960938 L 98.085938 149.894531 C 98.085938 148.390625 99.300781 147.175781 100.800781 147.175781 L 122.847656 147.175781 C 124.347656 147.175781 125.5625 148.390625 125.5625 149.894531 L 125.5625 175.960938 C 125.5625 177.460938 124.347656 178.679688 122.847656 178.679688 Z M 122.847656 178.679688 "/>
<path style=" stroke:none;fill-rule:nonzero;fill:rgb(90.196078%,90.196078%,90.196078%);fill-opacity:1;" d="M 185 130.925781 L 162.949219 130.925781 C 161.453125 130.921875 160.238281 129.707031 160.234375 128.203125 L 160.234375 102.140625 C 160.238281 100.636719 161.453125 99.421875 162.949219 99.417969 L 185 99.417969 C 186.5 99.421875 187.714844 100.636719 187.714844 102.140625 L 187.714844 128.203125 C 187.714844 129.707031 186.5 130.921875 185 130.925781 Z M 185 130.925781 "/>
<path style=" stroke:none;fill-rule:nonzero;fill:rgb(80%,80%,80%);fill-opacity:1;" d="M 166.949219 58.636719 L 132.554688 58.636719 C 131.222656 58.636719 130.140625 57.554688 130.140625 56.21875 C 130.140625 54.882812 131.222656 53.800781 132.554688 53.800781 L 166.949219 53.800781 C 168.28125 53.800781 169.363281 54.882812 169.363281 56.21875 C 169.363281 57.554688 168.28125 58.636719 166.949219 58.636719 Z M 166.949219 58.636719 "/>
<path style=" stroke:none;fill-rule:nonzero;fill:rgb(80%,80%,80%);fill-opacity:1;" d="M 264.097656 58.636719 L 229.703125 58.636719 C 228.371094 58.636719 227.289062 57.554688 227.289062 56.21875 C 227.289062 54.882812 228.371094 53.800781 229.703125 53.800781 L 264.097656 53.800781 C 265.429688 53.800781 266.511719 54.882812 266.511719 56.21875 C 266.511719 57.554688 265.429688 58.636719 264.097656 58.636719 Z M 264.097656 58.636719 "/>
<path style=" stroke:none;fill-rule:nonzero;fill:rgb(80%,80%,80%);fill-opacity:1;" d="M 355.210938 58.636719 L 320.816406 58.636719 C 319.484375 58.636719 318.402344 57.554688 318.402344 56.21875 C 318.402344 54.882812 319.484375 53.800781 320.816406 53.800781 L 355.210938 53.800781 C 356.542969 53.800781 357.625 54.882812 357.625 56.21875 C 357.625 57.554688 356.542969 58.636719 355.210938 58.636719 Z M 355.210938 58.636719 "/>
<path style=" stroke:none;fill-rule:nonzero;fill:rgb(80%,80%,80%);fill-opacity:1;" d="M 440.292969 58.636719 L 405.898438 58.636719 C 404.5625 58.636719 403.484375 57.554688 403.484375 56.21875 C 403.484375 54.882812 404.5625 53.800781 405.898438 53.800781 L 440.292969 53.800781 C 441.625 53.800781 442.703125 54.882812 442.703125 56.21875 C 442.703125 57.554688 441.625 58.636719 440.292969 58.636719 Z M 440.292969 58.636719 "/>
<path style=" stroke:none;fill-rule:nonzero;fill:rgb(100%,72.156863%,72.156863%);fill-opacity:1;" d="M 89.914062 235.6875 C 88.125 235.511719 86.507812 234.550781 85.496094 233.066406 C 84.480469 231.582031 84.175781 229.722656 84.664062 227.988281 L 69.195312 213.566406 L 77.375 211.488281 L 92.582031 223.847656 C 95.496094 224.878906 97.179688 227.933594 96.496094 230.953125 C 95.816406 233.976562 92.988281 236.007812 89.914062 235.6875 Z M 89.914062 235.6875 "/>
<path style=" stroke:none;fill-rule:nonzero;fill:rgb(100%,72.156863%,72.156863%);fill-opacity:1;" d="M 111.269531 342.292969 L 118.667969 342.292969 L 122.1875 313.710938 L 111.269531 313.710938 Z M 111.269531 342.292969 "/>
<path style=" stroke:none;fill-rule:nonzero;fill:rgb(18.431373%,18.039216%,25.490196%);fill-opacity:1;" d="M 132.933594 349.175781 L 109.6875 349.175781 L 109.683594 340.175781 L 123.953125 340.175781 C 128.914062 340.175781 132.933594 344.207031 132.933594 349.175781 Z M 132.933594 349.175781 "/>
<path style=" stroke:none;fill-rule:nonzero;fill:rgb(100%,72.156863%,72.156863%);fill-opacity:1;" d="M 60.546875 336.945312 L 67.699219 338.851562 L 78.4375 312.132812 L 67.886719 309.320312 Z M 60.546875 336.945312 "/>
<path style=" stroke:none;fill-rule:nonzero;fill:rgb(18.431373%,18.039216%,25.490196%);fill-opacity:1;" d="M 79.71875 349.175781 L 57.25 343.1875 L 59.5625 334.492188 L 73.347656 338.167969 C 78.140625 339.445312 80.992188 344.375 79.71875 349.175781 Z M 79.71875 349.175781 "/>
<path style=" stroke:none;fill-rule:nonzero;fill:rgb(18.431373%,18.039216%,25.490196%);fill-opacity:1;" d="M 120.65625 336.882812 L 109.371094 336.882812 C 107.890625 336.886719 106.65625 335.761719 106.519531 334.289062 L 99.664062 263 C 99.5625 261.921875 98.710938 261.066406 97.632812 260.960938 C 96.558594 260.855469 95.558594 261.527344 95.246094 262.566406 L 75.351562 329.179688 C 74.914062 330.652344 73.398438 331.515625 71.910156 331.144531 L 61.410156 328.511719 C 60.671875 328.328125 60.035156 327.855469 59.644531 327.199219 C 59.253906 326.539062 59.140625 325.753906 59.332031 325.015625 C 59.503906 324.34375 76.472656 257.898438 76.621094 257.214844 C 80.46875 228.824219 85.066406 221.214844 87.539062 217.128906 C 87.746094 216.792969 87.933594 216.480469 88.101562 216.1875 C 88.3125 215.820312 89.617188 212.167969 90.445312 209.800781 C 90.660156 209.019531 91.195312 208.367188 91.914062 208 C 102.300781 202.679688 114.449219 206.363281 117.925781 207.617188 C 118.503906 207.820312 118.996094 208.207031 119.335938 208.714844 C 129.765625 224.476562 124.648438 316.007812 123.515625 334.195312 C 123.417969 335.707031 122.167969 336.882812 120.65625 336.882812 Z M 120.65625 336.882812 "/>
<path style=" stroke:none;fill-rule:nonzero;fill:rgb(100%,72.156863%,72.156863%);fill-opacity:1;" d="M 106.347656 141.464844 C 106.347656 149.664062 99.710938 156.3125 91.527344 156.3125 C 83.34375 156.3125 76.707031 149.664062 76.707031 141.464844 C 76.707031 133.265625 83.34375 126.617188 91.527344 126.617188 C 99.710938 126.617188 106.347656 133.265625 106.347656 141.464844 Z M 106.347656 141.464844 "/>
<path style=" stroke:none;fill-rule:nonzero;fill:rgb(80%,80%,80%);fill-opacity:1;" d="M 89.957031 212.683594 L 89.851562 212.578125 C 89.652344 212.386719 69.90625 193.007812 72.460938 175.085938 C 73.554688 167.421875 79.742188 162.523438 90.363281 160.921875 C 98.425781 159.722656 106.144531 164.648438 108.464844 172.480469 L 118.960938 208.4375 Z M 89.957031 212.683594 "/>
<path style=" stroke:none;fill-rule:nonzero;fill:rgb(80%,80%,80%);fill-opacity:1;" d="M 79.851562 226.464844 L 65.78125 212.460938 C 63.824219 210.5 63.027344 207.664062 63.679688 204.96875 L 70.492188 177.210938 C 70.902344 175.53125 71.992188 174.09375 73.5 173.25 C 75.007812 172.402344 76.796875 172.214844 78.445312 172.738281 C 81.675781 173.78125 83.492188 177.207031 82.554688 180.472656 L 75.382812 204.890625 L 86.980469 217.367188 Z M 79.851562 226.464844 "/>
<path style=" stroke:none;fill-rule:nonzero;fill:rgb(100%,72.156863%,72.156863%);fill-opacity:1;" d="M 155.320312 178.664062 C 154.566406 180.296875 153.128906 181.511719 151.394531 181.984375 C 149.664062 182.453125 147.8125 182.128906 146.339844 181.101562 L 127.554688 190.851562 L 128.386719 182.566406 L 145.039062 172.242188 C 146.96875 169.828125 150.402344 169.242188 153.023438 170.878906 C 155.648438 172.515625 156.632812 175.863281 155.320312 178.664062 Z M 155.320312 178.664062 "/>
<path style=" stroke:none;fill-rule:nonzero;fill:rgb(80%,80%,80%);fill-opacity:1;" d="M 144.289062 184.832031 L 125.976562 192.757812 C 123.496094 193.824219 120.644531 193.515625 118.449219 191.949219 L 95.164062 175.234375 C 93.757812 174.226562 92.832031 172.683594 92.605469 170.964844 C 92.382812 169.25 92.875 167.515625 93.972656 166.175781 C 96.136719 163.558594 99.988281 163.140625 102.664062 165.230469 L 122.632812 180.972656 L 138.5 174.820312 Z M 144.289062 184.832031 "/>
<path style=" stroke:none;fill-rule:nonzero;fill:rgb(18.431373%,18.039216%,25.490196%);fill-opacity:1;" d="M 93.984375 146.222656 C 95.8125 143.929688 99.226562 143.804688 101.738281 142.289062 C 105.027344 140.308594 106.390625 135.875 105.328125 132.179688 C 104.269531 128.484375 101.144531 125.601562 97.558594 124.226562 C 93.972656 122.847656 89.984375 122.828125 86.203125 123.496094 C 80.574219 124.488281 75.03125 127.121094 71.597656 131.699219 C 68.164062 136.277344 67.289062 142.980469 70.402344 147.785156 C 71.832031 149.992188 74.039062 151.816406 74.613281 154.382812 C 75.359375 157.757812 73 161.011719 70.46875 163.359375 C 67.585938 166.035156 64.28125 168.277344 61.753906 171.292969 C 59.230469 174.308594 57.546875 178.429688 58.699219 182.191406 C 59.664062 185.34375 62.472656 187.667969 65.554688 188.832031 C 68.636719 189.996094 71.988281 190.164062 75.28125 190.226562 C 78.476562 190.289062 81.875 190.210938 84.566406 188.484375 C 87.449219 186.636719 88.988281 183.132812 89.101562 179.703125 C 89.214844 176.277344 88.070312 172.921875 86.539062 169.855469 C 85.625 168.027344 84.566406 166.257812 83.957031 164.304688 C 83.351562 162.355469 83.246094 160.140625 84.21875 158.34375 C 85.238281 156.453125 87.304688 155.316406 89.410156 154.902344 C 89.519531 154.878906 89.636719 154.859375 89.757812 154.84375 C 90.964844 154.6875 92.058594 154.039062 92.78125 153.054688 C 93.503906 152.070312 93.789062 150.832031 93.578125 149.628906 C 93.335938 148.289062 93.359375 147.007812 93.984375 146.222656 Z M 93.984375 146.222656 "/>
<path style=" stroke:none;fill-rule:nonzero;fill:rgb(62.745098%,38.039216%,41.568627%);fill-opacity:1;" d="M 291.582031 342.925781 L 284.1875 342.925781 L 280.667969 314.34375 L 291.585938 314.34375 Z M 291.582031 342.925781 "/>
<path style=" stroke:none;fill-rule:nonzero;fill:rgb(18.431373%,18.039216%,25.490196%);fill-opacity:1;" d="M 278.902344 340.808594 L 293.167969 340.808594 L 293.167969 349.808594 L 269.917969 349.808594 C 269.917969 344.839844 273.941406 340.808594 278.902344 340.808594 Z M 278.902344 340.808594 "/>
<path style=" stroke:none;fill-rule:nonzero;fill:rgb(62.745098%,38.039216%,41.568627%);fill-opacity:1;" d="M 345.257812 334.53125 L 338.53125 337.613281 L 323.472656 313.074219 L 333.40625 308.53125 Z M 345.257812 334.53125 "/>
<path style=" stroke:none;fill-rule:nonzero;fill:rgb(18.431373%,18.039216%,25.490196%);fill-opacity:1;" d="M 332.847656 337.886719 L 345.824219 331.945312 L 349.554688 340.132812 L 328.40625 349.808594 C 326.347656 345.289062 328.332031 339.949219 332.847656 337.886719 Z M 332.847656 337.886719 "/>
<path style=" stroke:none;fill-rule:nonzero;fill:rgb(62.745098%,38.039216%,41.568627%);fill-opacity:1;" d="M 323.714844 246.546875 C 325.152344 245.464844 326.035156 243.800781 326.128906 242.003906 C 326.21875 240.207031 325.515625 238.460938 324.199219 237.238281 L 332.894531 217.46875 L 321.847656 219.347656 L 315.285156 237.828125 C 313.332031 240.230469 313.484375 243.714844 315.636719 245.941406 C 317.785156 248.164062 321.257812 248.421875 323.714844 246.546875 Z M 323.714844 246.546875 "/>
<path style=" stroke:none;fill-rule:nonzero;fill:rgb(18.431373%,18.039216%,25.490196%);fill-opacity:1;" d="M 291.113281 335.390625 L 284.042969 335.390625 C 282.625 335.386719 281.445312 334.285156 281.335938 332.867188 L 277.484375 229.765625 C 277.425781 228.964844 277.722656 228.183594 278.292969 227.621094 C 278.867188 227.0625 279.65625 226.785156 280.453125 226.863281 L 321.328125 231.210938 C 322.699219 231.34375 323.75 232.484375 323.777344 233.867188 L 324.632812 279.34375 C 324.636719 279.59375 324.6875 279.835938 324.773438 280.066406 L 341.539062 323.621094 C 341.800781 324.300781 341.78125 325.058594 341.480469 325.722656 C 341.179688 326.386719 340.628906 326.902344 339.945312 327.152344 L 332.785156 329.796875 C 331.496094 330.269531 330.058594 329.710938 329.429688 328.488281 L 308.835938 288.367188 C 308.722656 288.148438 308.640625 287.917969 308.589844 287.675781 L 305.074219 270.695312 C 304.863281 269.679688 303.945312 268.964844 302.910156 269.011719 C 301.875 269.058594 301.023438 269.851562 300.90625 270.882812 L 293.808594 332.980469 C 293.652344 334.351562 292.492188 335.390625 291.113281 335.390625 Z M 291.113281 335.390625 "/>
<path style=" stroke:none;fill-rule:nonzero;fill:rgb(62.745098%,38.039216%,41.568627%);fill-opacity:1;" d="M 309.453125 134.304688 C 309.453125 142.503906 302.816406 149.152344 294.632812 149.152344 C 286.445312 149.152344 279.8125 142.503906 279.8125 134.304688 C 279.8125 126.105469 286.445312 119.457031 294.632812 119.457031 C 302.816406 119.457031 309.453125 126.105469 309.453125 134.304688 Z M 309.453125 134.304688 "/>
<path style=" stroke:none;fill-rule:nonzero;fill:rgb(3.921569%,15.686275%,30.588235%);fill-opacity:1;" d="M 304.792969 239.195312 C 294.746094 239.082031 284.933594 236.105469 276.511719 230.609375 L 276.367188 230.511719 L 276.382812 230.335938 L 282.050781 164.195312 C 282.453125 159.554688 286.214844 155.925781 290.859375 155.695312 C 298.207031 155.355469 308.074219 155.785156 313.359375 159.726562 C 321.34375 165.683594 325.191406 174.652344 323.914062 184.335938 C 321.273438 204.414062 324.265625 231.503906 324.617188 234.527344 L 324.640625 234.742188 L 324.441406 234.835938 C 318.289062 237.703125 311.582031 239.191406 304.792969 239.195312 Z M 304.792969 239.195312 "/>
<path style=" stroke:none;fill-rule:nonzero;fill:rgb(3.921569%,15.686275%,30.588235%);fill-opacity:1;" d="M 324.546875 234.636719 C 323.703125 234.636719 322.898438 234.28125 322.328125 233.65625 L 319.085938 230.113281 C 318.371094 229.332031 318.121094 228.234375 318.417969 227.214844 L 325.808594 202.152344 L 314.5625 178.488281 C 314.035156 177.382812 313.90625 176.125 314.195312 174.933594 C 314.71875 172.792969 316.503906 171.195312 318.6875 170.917969 C 320.867188 170.636719 322.996094 171.734375 324.039062 173.675781 L 339.304688 198.484375 C 340.5625 200.527344 340.726562 203.066406 339.738281 205.253906 L 327.300781 232.859375 C 326.886719 233.785156 326.03125 234.441406 325.027344 234.597656 C 324.871094 234.625 324.710938 234.636719 324.546875 234.636719 Z M 324.546875 234.636719 "/>
<path style=" stroke:none;fill-rule:nonzero;fill:rgb(62.745098%,38.039216%,41.568627%);fill-opacity:1;" d="M 220.085938 186.757812 C 221.527344 187.832031 223.367188 188.210938 225.113281 187.792969 C 226.859375 187.375 228.332031 186.207031 229.136719 184.597656 L 250.519531 187.375 L 245.605469 177.285156 L 226.050781 176.195312 C 223.199219 175 219.90625 176.125 218.382812 178.820312 C 216.863281 181.515625 217.59375 184.925781 220.085938 186.757812 Z M 220.085938 186.757812 "/>
<path style=" stroke:none;fill-rule:nonzero;fill:rgb(3.921569%,15.686275%,30.588235%);fill-opacity:1;" d="M 267.21875 192.269531 C 266.847656 192.269531 266.472656 192.242188 266.105469 192.191406 L 232.464844 187.515625 C 231.347656 187.363281 230.382812 186.65625 229.898438 185.636719 C 229.824219 185.476562 229.757812 185.308594 229.707031 185.136719 C 229.445312 184.234375 229.570312 183.261719 230.054688 182.457031 L 232.839844 177.832031 C 233.449219 176.828125 234.535156 176.210938 235.707031 176.210938 L 235.710938 176.210938 L 265.035156 176.242188 L 286.9375 156.585938 C 287.953125 155.675781 289.253906 155.140625 290.621094 155.074219 C 293.074219 154.960938 295.34375 156.375 296.332031 158.628906 C 297.316406 160.878906 296.816406 163.507812 295.070312 165.238281 L 273.21875 189.589844 C 271.6875 191.292969 269.507812 192.269531 267.21875 192.269531 Z M 267.21875 192.269531 "/>
<path style=" stroke:none;fill-rule:nonzero;fill:rgb(18.431373%,18.039216%,25.490196%);fill-opacity:1;" d="M 296.316406 147.511719 C 297.671875 144.371094 298.816406 140.191406 296.21875 137.96875 C 294.710938 136.683594 292.542969 136.679688 290.566406 136.519531 C 285.003906 136.070312 279.28125 133.503906 276.5625 128.625 C 273.84375 123.742188 275.363281 116.480469 280.488281 114.28125 C 283.945312 112.796875 287.910156 113.804688 291.527344 114.835938 L 302.394531 117.921875 C 305.621094 118.839844 309.011719 119.847656 311.335938 122.273438 C 315.042969 126.140625 314.765625 132.679688 311.820312 137.15625 C 308.878906 141.632812 304.445312 146.300781 299.367188 148 Z M 296.316406 147.511719 "/>
<path style=" stroke:none;fill-rule:nonzero;fill:rgb(24.705882%,23.921569%,33.72549%);fill-opacity:1;" d="M 446.210938 350.003906 L 0.71875 350.003906 C 0.460938 350.007812 0.222656 349.871094 0.09375 349.648438 C -0.0351562 349.421875 -0.0351562 349.148438 0.09375 348.925781 C 0.222656 348.703125 0.460938 348.566406 0.71875 348.566406 L 446.210938 348.566406 C 446.46875 348.566406 446.703125 348.703125 446.832031 348.925781 C 446.960938 349.148438 446.960938 349.421875 446.832031 349.648438 C 446.703125 349.871094 446.46875 350.007812 446.210938 350.003906 Z M 446.210938 350.003906 "/>
</g>
</svg>
